<svg width="42" height="34" viewBox="0 0 42 34" fill="none" xmlns="http://www.w3.org/2000/svg">
<path d="M37.419 8.44897C37.4444 8.81719 37.4444 9.1854 37.4444 9.55701C37.4444 20.88 28.8411 33.9388 13.1098 33.9388V33.932C8.46267 33.9388 3.9121 32.6051 0 30.0904C0.675726 30.1718 1.35484 30.2125 2.03565 30.2142C5.88678 30.2176 9.62783 28.923 12.6576 26.5389C8.99783 26.4693 5.78855 24.0785 4.66742 20.5881C5.94944 20.8359 7.27041 20.7849 8.52871 20.4405C4.53871 19.6328 1.66815 16.1204 1.66815 12.0412C1.66815 12.0038 1.66815 11.9682 1.66815 11.9326C2.85702 12.596 4.18815 12.9642 5.54976 13.005C1.79177 10.4886 0.633387 5.47952 2.90274 1.56323C7.245 6.91673 13.6517 10.1713 20.5292 10.5157C19.8399 7.53947 20.7815 4.42069 23.0035 2.3285C26.4482 -0.915844 31.8658 -0.749555 35.1039 2.70011C37.0193 2.32171 38.8551 1.61753 40.5351 0.619789C39.8966 2.60339 38.5604 4.28834 36.7754 5.35904C38.4707 5.15882 40.127 4.70406 41.6867 4.01006C40.5385 5.73404 39.0922 7.23574 37.419 8.44897Z" fill="#1D9BF0"/>
</svg>
