<svg width="39" height="39" viewBox="0 0 39 39" fill="none" xmlns="http://www.w3.org/2000/svg">
<g clip-path="url(#clip0_20_3189)">
<path d="M39 19.5C39 8.73043 30.2696 -7.62939e-06 19.5 -7.62939e-06C8.73044 -7.62939e-06 0 8.73043 0 19.5C0 29.233 7.13087 37.3002 16.4531 38.7631V25.1367H11.502V19.5H16.4531V15.2039C16.4531 10.3167 19.3643 7.61718 23.8186 7.61718C25.952 7.61718 28.1836 7.99804 28.1836 7.99804V12.7969H25.7247C23.3023 12.7969 22.5469 14.3 22.5469 15.8421V19.5H27.9551L27.0905 25.1367H22.5469V38.7631C31.8691 37.3002 39 29.233 39 19.5Z" fill="#1877F2"/>
<path d="M27.0905 25.1367L27.9551 19.5H22.5469V15.8421C22.5469 14.3 23.3023 12.7969 25.7247 12.7969H28.1836V7.99805C28.1836 7.99805 25.952 7.61719 23.8186 7.61719C19.3643 7.61719 16.4531 10.3167 16.4531 15.2039V19.5H11.502V25.1367H16.4531V38.7631C17.4459 38.9189 18.4635 39 19.5 39C20.5365 39 21.5541 38.9189 22.5469 38.7631V25.1367H27.0905Z" fill="white"/>
</g>
<defs>
<clipPath id="clip0_20_3189">
<rect width="39" height="39" fill="white"/>
</clipPath>
</defs>
</svg>
